<?xml version="1.0" encoding="UTF-8" standalone="no"?>
<!-- Created with Inkscape (http://www.inkscape.org/) -->

<svg
   width="652.53101mm"
   height="102.88101mm"
   viewBox="0 0 652.53101 102.88101"
   version="1.1"
   id="svg1"
   xml:space="preserve"
   xmlns:xlink="http://www.w3.org/1999/xlink"
   xmlns="http://www.w3.org/2000/svg"
   xmlns:svg="http://www.w3.org/2000/svg"><defs
     id="defs1"><linearGradient
       id="linearGradient47"><stop
         style="stop-color:#0ac18e;stop-opacity:1;"
         offset="0"
         id="stop47" /><stop
         style="stop-color:#00e5e6;stop-opacity:1;"
         offset="1"
         id="stop48" /></linearGradient><linearGradient
       id="linearGradient33"><stop
         style="stop-color:#000000;stop-opacity:1;"
         offset="0"
         id="stop33" /><stop
         style="stop-color:#000000;stop-opacity:0;"
         offset="1"
         id="stop34" /></linearGradient><linearGradient
       xlink:href="#linearGradient47"
       id="linearGradient31"
       gradientUnits="userSpaceOnUse"
       gradientTransform="translate(-44.303076,39.469236)"
       x1="66.102829"
       y1="14.453504"
       x2="78.076508"
       y2="2.4798284" /><linearGradient
       xlink:href="#linearGradient33"
       id="linearGradient36"
       gradientUnits="userSpaceOnUse"
       gradientTransform="translate(-84.052678,-6.170272)"
       x1="95.464165"
       y1="19.260782"
       x2="99.306381"
       y2="19.260782" /><linearGradient
       xlink:href="#linearGradient47"
       id="linearGradient48"
       x1="24.239801"
       y1="14.33499"
       x2="34.278389"
       y2="4.296402"
       gradientUnits="userSpaceOnUse"
       gradientTransform="matrix(0.92580523,0,0,0.92580523,-17.827256,0.30816199)" /><rect
       x="162.01315"
       y="219.87498"
       width="306.66776"
       height="75.22039"
       id="rect6" /></defs><g
     id="layer1"><text
       xml:space="preserve"
       style="font-style:normal;font-variant:normal;font-weight:bold;font-stretch:normal;font-size:28.9824px;font-family:Ubuntu;-inkscape-font-specification:'Ubuntu Bold';text-align:start;writing-mode:lr-tb;direction:ltr;text-anchor:start;white-space:pre;fill:none;fill-opacity:1;stroke:#000000;stroke-width:0;stroke-dasharray:none;paint-order:stroke fill markers"
       x="-2.3765228"
       y="97.490318"
       id="text31"><tspan
         id="tspan30"
         style="font-size:28.9824px;fill:#000000;fill-opacity:1;stroke:none;stroke-width:0;stroke-dasharray:none;stroke-opacity:1"
         x="-2.3765228"
         y="97.490318">Recurrent payments in BCH, stablecoins or both.</tspan><tspan
         style="font-size:28.9824px;stroke-width:0;stroke-dasharray:none"
         x="-2.3765228"
         y="133.71832"
         id="tspan31" /></text><g
       id="g1"
       transform="matrix(3.7795278,0,0,3.7795278,6.2815274e-7,1.3384982e-5)"
       style="stroke-width:0.264583"><g
         id="layer1-7"
         transform="translate(-19.319997,-39.469197)"
         style="stroke-width:0.264583"><circle
           style="fill:url(#linearGradient31);fill-opacity:1;stroke-width:0.0197568"
           id="circle15"
           cx="27.786663"
           cy="47.93586"
           r="8.4666662" /><circle
           style="fill:#ffffff;fill-opacity:1;stroke-width:0.0181103"
           id="circle16"
           cx="27.786663"
           cy="47.93586"
           r="7.7611113" /></g><path
         id="path32"
         style="font-size:9.13483px;opacity:1;fill:url(#linearGradient48);stroke-width:0.0258957"
         d="m 11.684591,2.438505 -1.902209,5.17e-4 v 5.16e-4 h 0.506946 a 0.50749999,0.50749999 0 0 0 -0.506946,0.506946 0.50749999,0.50749999 0 0 0 0,5.17e-4 0.50749999,0.50749999 0 0 0 0.475939,0.506429 h 0.708484 L 9.754994,4.665759 c 0.307376,0.135621 0.563314,0.354049 0.753959,0.680579 L 11.684591,4.170699 V 4.853345 A 0.50749999,0.50749999 0 0 0 12.192054,5.333935 0.50749999,0.50749999 0 0 0 12.699,4.845076 V 3.45343 2.438505 Z M 7.144816,3.051387 6.114389,3.338192 6.547953,5.018709 C 6.295551,5.088889 6.028156,5.187108 5.754721,5.263139 L 5.314954,3.5604 4.305197,3.841003 4.750648,5.565446 C 4.377681,5.692546 3.935888,5.815305 2.689275,6.138537 L 2.98228,7.273869 C 3.775918,7.029799 4.206256,6.863215 4.431287,7.38549 l 1.223181,4.736144 c 0.04398,0.432258 -0.282935,0.476523 -1.024743,0.659392 L 4.746513,14.105493 6.786699,13.538086 7.169621,15.022233 8.200566,14.735945 7.822811,13.273503 8.622246,13.051294 9,14.513736 10.030429,14.226932 9.646989,12.742786 c 0.364039,-0.121485 0.697197,-0.253054 0.992705,-0.402043 v -0.891936 c 0,-0.482068 0.398415,-0.879016 0.880566,-0.879016 h 0.0925 v -0.173116 c 0,-0.262196 0.21178,-0.474385 0.473873,-0.474389 0.0078,1e-6 0.01555,7.23e-4 0.02325,10e-4 -0.0069,-0.07886 -0.01717,-0.160197 -0.02997,-0.243396 C 11.841289,8.31923 11.079599,7.899641 10.050063,7.928576 10.554462,7.437416 10.792071,6.786373 10.471227,5.893041 10.023779,4.684004 8.928159,4.544152 7.590265,4.775797 L 7.248684,3.453914 h -0.02377 v -0.0925 z M 7.717392,6.162825 C 8.188004,6.171225 8.603657,6.34354 8.744202,6.887846 9.054177,8.08832 7.205775,8.438876 6.63787,8.596785 L 6.096819,6.501306 C 6.416265,6.412486 7.112316,6.152034 7.717392,6.162825 Z m 1.112593,3.103687 c 0.548491,0.0029 1.027416,0.186712 1.18029,0.778763 0.338155,1.309608 -1.799283,1.763471 -2.493388,1.95647 l -0.0057,-0.02222 -0.59738,-2.313554 C 7.304242,9.557411 8.124766,9.262745 8.829969,9.266513 Z m 3.449402,0.840776 c -0.262093,3e-6 -0.473873,0.211676 -0.473873,0.473872 v 0.173117 h -0.09198 c -0.482151,0 -0.881083,0.396947 -0.881083,0.879015 v 2.915068 c 0,0.482069 0.398931,0.878499 0.881083,0.878499 h 3.240113 c 0.482152,0 0.879016,-0.396431 0.879016,-0.878499 v -2.915068 c 0,-0.482067 -0.396865,-0.879015 -0.879016,-0.879015 h -0.0925 V 10.58116 c 0,-0.262207 -0.213334,-0.473872 -0.475423,-0.473872 -0.262096,0 -0.473357,0.211675 -0.473357,0.473872 v 0.173117 H 12.754815 V 10.58116 c 0,-0.262202 -0.213335,-0.473869 -0.475423,-0.473872 z m -0.565857,1.225764 h 0.565857 2.674256 c 0.16281,0 0.300239,0.13738 0.300239,0.30024 v 0.531751 h -3.842659 v -0.531751 c 0,-0.162858 0.139497,-0.30024 0.302307,-0.30024 z m -0.302307,1.410767 h 3.842659 v 1.804541 c 0,0.162857 -0.137429,0.299724 -0.300239,0.299724 H 11.71353 c -0.162809,0 -0.302307,-0.136865 -0.302307,-0.299724 z" /><path
         id="path35"
         style="baseline-shift:baseline;display:inline;overflow:visible;opacity:1;fill:#ffffff;fill-opacity:1;stroke:url(#linearGradient36);stroke-width:0;stroke-dasharray:none;paint-order:stroke fill markers;enable-background:accumulate;stop-color:#000000;stop-opacity:1"
         d="m 11.713569,11.333051 c -0.0389,0 -0.07645,0.0075 -0.111105,0.0217 -0.0087,0.0035 -0.01757,0.0076 -0.02584,0.01189 -0.0336,0.01754 -0.0638,0.04158 -0.08888,0.06976 -0.0067,0.0076 -0.01317,0.01557 -0.01912,0.02377 -0.006,0.0082 -0.01142,0.01656 -0.01654,0.02532 -0.0053,0.009 -0.01013,0.01791 -0.01447,0.02739 -0.01669,0.03656 -0.02613,0.0764 -0.02635,0.118339 -2e-6,5.2e-4 0,10e-4 0,0.0016 v 5.16e-4 0.531751 h 3.842656 v -0.531751 -5.16e-4 c -2.1e-4,-0.120423 -0.0757,-0.227274 -0.18086,-0.274402 -1.5e-4,-6.5e-5 -3.7e-4,6.5e-5 -5.2e-4,0 -0.0367,-0.0164 -0.0768,-0.02532 -0.11886,-0.02532 h -2.67425 z m -0.302308,1.410767 v 1.804023 5.17e-4 c 0,0.0162 0.0015,0.03196 0.0041,0.04754 0.0053,0.03118 0.01549,0.06099 0.02997,0.08837 0.0072,0.01369 0.0156,0.02635 0.02481,0.03876 0.05575,0.07521 0.145231,0.125057 0.243396,0.125057 h 3.240108 c 0.0333,0 0.0654,-0.006 0.0956,-0.01654 0.016,-0.0056 0.0312,-0.01203 0.046,-0.02015 0.0254,-0.01395 0.0488,-0.03184 0.0692,-0.05219 0.007,-0.0067 0.0135,-0.01385 0.0196,-0.02119 9e-5,-1.07e-4 -9e-5,-4.13e-4 0,-5.18e-4 0.006,-0.0074 0.0121,-0.01474 0.0176,-0.02274 0.0109,-0.01599 0.0202,-0.03328 0.0279,-0.05116 0.0154,-0.03573 0.0243,-0.07452 0.0243,-0.115237 v -5.18e-4 -1.804023 z" /></g><text
       xml:space="preserve"
       transform="matrix(4.1580129,0,0,4.1580129,-604.11017,-926.24487)"
       id="text6"
       style="font-style:normal;font-variant:normal;font-weight:bold;font-stretch:normal;font-size:16px;font-family:Ubuntu;-inkscape-font-specification:'Ubuntu Bold';text-align:start;writing-mode:lr-tb;direction:ltr;white-space:pre;shape-inside:url(#rect6);display:inline;fill:#32ffff;stroke:#000000;stroke-width:0;paint-order:stroke fill markers"><tspan
         x="162.01367"
         y="235.17741"
         id="tspan2">RecurrentPay<tspan
   style="fill:#0ac18e"
   id="tspan1">.Cash</tspan></tspan></text></g></svg>
