<?xml version="1.0" encoding="UTF-8" standalone="no"?>
<!-- Created with Inkscape (http://www.inkscape.org/) -->

<svg
   width="507.99991mm"
   height="56.29493mm"
   viewBox="0 0 507.99991 56.29493"
   version="1.1"
   id="svg1"
   xmlns="http://www.w3.org/2000/svg"
   xmlns:svg="http://www.w3.org/2000/svg">
  <defs
     id="defs1" />
  <g
     id="layer1"
     transform="translate(27.872696,-20.689651)">
    <g
       id="text1"
       style="font-weight:bold;font-size:16px;font-family:Ubuntu;-inkscape-font-specification:'Ubuntu Bold';white-space:pre;fill:#32ffff;stroke:#000000;stroke-width:0;paint-order:stroke fill markers"
       transform="matrix(3.6574145,0,0,3.6574145,-625.22237,-794.04116)"
       aria-label="RecurrentPay.Cash">
      <path
         d="m 163.32567,235.17741 v -10.912 q 0.768,-0.16 1.616,-0.224 0.848,-0.08 1.536,-0.08 2.448,0 3.728,0.896 1.296,0.88 1.296,2.704 0,1.184 -0.56,1.92 -0.56,0.72 -1.584,1.12 0.32,0.4 0.688,0.928 0.384,0.528 0.752,1.136 0.384,0.608 0.736,1.248 0.352,0.64 0.64,1.264 h -2.432 q -0.416,-0.768 -0.88,-1.52 -0.448,-0.768 -0.896,-1.456 -0.448,-0.688 -0.864,-1.184 -0.064,0 -0.128,0.016 -0.048,0 -0.096,0 h -1.36 v 4.144 z m 2.192,-5.888 h 0.88 q 0.96,0 1.584,-0.144 0.64,-0.16 0.944,-0.544 0.32,-0.384 0.32,-1.056 0,-0.64 -0.32,-1.008 -0.304,-0.384 -0.912,-0.544 -0.592,-0.16 -1.392,-0.16 -0.352,0 -0.624,0.032 -0.272,0.016 -0.48,0.032 z m 11.79999,6.096 q -1.504,0 -2.464,-0.56 -0.96,-0.576 -1.44,-1.568 -0.464,-0.992 -0.464,-2.224 0,-1.488 0.576,-2.464 0.576,-0.992 1.472,-1.488 0.896,-0.512 1.904,-0.512 1.152,0 1.984,0.48 0.848,0.48 1.296,1.424 0.464,0.944 0.464,2.368 0,0.176 -0.016,0.4 -0.016,0.224 -0.032,0.4 h -5.488 q 0.064,0.912 0.688,1.424 0.64,0.512 1.776,0.512 0.704,0 1.296,-0.128 0.608,-0.128 0.96,-0.288 l 0.304,1.712 q -0.352,0.176 -1.152,0.336 -0.784,0.176 -1.664,0.176 z m -2.208,-5.216 h 3.504 q -0.016,-0.496 -0.208,-0.912 -0.176,-0.432 -0.544,-0.688 -0.352,-0.256 -0.944,-0.256 -0.576,0 -0.96,0.272 -0.368,0.256 -0.576,0.688 -0.208,0.416 -0.272,0.896 z m 11.34401,5.216 q -1.488,0 -2.432,-0.576 -0.944,-0.576 -1.408,-1.568 -0.448,-0.992 -0.448,-2.256 0,-1.232 0.512,-2.224 0.512,-1.008 1.456,-1.6 0.944,-0.592 2.256,-0.592 0.672,0 1.232,0.128 0.576,0.112 1.056,0.32 l -0.448,1.68 q -0.336,-0.128 -0.736,-0.224 -0.4,-0.096 -0.928,-0.096 -1.136,0 -1.696,0.72 -0.56,0.704 -0.56,1.888 0,0.8 0.224,1.392 0.224,0.576 0.752,0.896 0.528,0.304 1.392,0.304 0.48,0 0.96,-0.096 0.496,-0.096 0.864,-0.256 l 0.32,1.728 q -0.384,0.176 -1.008,0.304 -0.624,0.128 -1.36,0.128 z m 7.50398,-0.032 q -1.376,0 -2.176,-0.496 -0.784,-0.496 -1.104,-1.36 -0.32,-0.88 -0.32,-2.032 v -4.672 h 2.096 v 4.384 q 0,0.848 0.144,1.376 0.16,0.528 0.528,0.768 0.368,0.24 0.976,0.24 0.368,0 0.704,-0.032 0.352,-0.032 0.56,-0.064 v -6.672 h 2.08 v 8.096 q -0.576,0.16 -1.504,0.304 -0.912,0.16 -1.984,0.16 z m 5.85599,-0.176 v -7.952 q 0.576,-0.208 1.408,-0.4 0.848,-0.208 1.904,-0.208 0.272,0 0.64,0.048 0.368,0.032 0.704,0.096 0.352,0.064 0.576,0.16 l -0.352,1.728 q -0.288,-0.08 -0.72,-0.16 -0.416,-0.08 -0.944,-0.08 -0.32,0 -0.656,0.048 -0.32,0.048 -0.48,0.112 v 6.608 z m 6.57599,0 v -7.952 q 0.576,-0.208 1.408,-0.4 0.848,-0.208 1.904,-0.208 0.272,0 0.64,0.048 0.368,0.032 0.704,0.096 0.352,0.064 0.576,0.16 l -0.352,1.728 q -0.288,-0.08 -0.72,-0.16 -0.416,-0.08 -0.944,-0.08 -0.32,0 -0.656,0.048 -0.32,0.048 -0.48,0.112 v 6.608 z m 10.38799,0.208 q -1.504,0 -2.464,-0.56 -0.96,-0.576 -1.44,-1.568 -0.464,-0.992 -0.464,-2.224 0,-1.488 0.576,-2.464 0.576,-0.992 1.472,-1.488 0.896,-0.512 1.904,-0.512 1.152,0 1.984,0.48 0.848,0.48 1.296,1.424 0.464,0.944 0.464,2.368 0,0.176 -0.016,0.4 -0.016,0.224 -0.032,0.4 h -5.488 q 0.064,0.912 0.688,1.424 0.64,0.512 1.776,0.512 0.704,0 1.296,-0.128 0.608,-0.128 0.96,-0.288 l 0.304,1.712 q -0.352,0.176 -1.152,0.336 -0.784,0.176 -1.664,0.176 z m -2.208,-5.216 h 3.504 q -0.016,-0.496 -0.208,-0.912 -0.176,-0.432 -0.544,-0.688 -0.352,-0.256 -0.944,-0.256 -0.576,0 -0.96,0.272 -0.368,0.256 -0.576,0.688 -0.208,0.416 -0.272,0.896 z m 7.48801,5.008 v -8.096 q 0.576,-0.16 1.488,-0.32 0.928,-0.16 2,-0.16 1.408,0 2.176,0.496 0.784,0.48 1.088,1.344 0.32,0.864 0.32,2.016 v 4.72 h -2.08 v -4.432 q 0,-0.848 -0.16,-1.36 -0.144,-0.528 -0.496,-0.752 -0.352,-0.24 -0.992,-0.24 -0.368,0 -0.72,0.048 -0.336,0.032 -0.544,0.064 v 6.672 z m 12.46398,0.192 q -1.232,0 -1.936,-0.432 -0.688,-0.448 -0.976,-1.232 -0.272,-0.8 -0.272,-1.888 v -7.2 l 2.08,-0.336 v 2.512 h 2.96 v 1.744 h -2.96 v 3.28 q 0,0.592 0.128,0.992 0.144,0.384 0.448,0.576 0.32,0.192 0.848,0.192 0.432,0 0.832,-0.08 0.416,-0.096 0.736,-0.224 l 0.304,1.648 q -0.384,0.16 -0.912,0.304 -0.528,0.144 -1.28,0.144 z m 3.92,-0.192 v -10.912 q 0.768,-0.16 1.648,-0.224 0.88,-0.08 1.568,-0.08 2.448,0 3.728,0.88 1.296,0.88 1.296,2.784 0,1.312 -0.592,2.144 -0.592,0.816 -1.744,1.2 -1.136,0.368 -2.768,0.368 h -0.944 v 3.84 z m 2.192,-5.712 h 0.912 q 0.928,0 1.568,-0.16 0.656,-0.16 0.976,-0.56 0.336,-0.4 0.336,-1.136 0,-0.704 -0.336,-1.088 -0.336,-0.384 -0.944,-0.528 -0.592,-0.16 -1.36,-0.16 -0.336,0 -0.64,0.032 -0.304,0.016 -0.512,0.032 z m 10.44399,5.888 q -1.04,0 -1.824,-0.256 -0.784,-0.272 -1.232,-0.864 -0.432,-0.608 -0.432,-1.616 0,-0.96 0.48,-1.536 0.496,-0.576 1.312,-0.816 0.816,-0.256 1.744,-0.256 0.464,0 0.848,0.048 0.4,0.048 0.592,0.112 v -0.288 q 0,-0.448 -0.16,-0.8 -0.144,-0.352 -0.528,-0.544 -0.368,-0.208 -1.024,-0.208 -0.688,0 -1.248,0.096 -0.56,0.096 -0.928,0.24 l -0.272,-1.696 q 0.384,-0.128 1.104,-0.256 0.736,-0.144 1.568,-0.144 1.328,0 2.096,0.416 0.768,0.416 1.088,1.168 0.32,0.752 0.32,1.776 v 5.024 q -0.464,0.096 -1.376,0.24 -0.896,0.16 -2.128,0.16 z m 0.16,-1.632 q 0.416,0 0.768,-0.016 0.352,-0.032 0.56,-0.08 v -2.048 q -0.144,-0.048 -0.464,-0.08 -0.304,-0.048 -0.64,-0.048 -0.464,0 -0.88,0.096 -0.4,0.08 -0.656,0.32 -0.256,0.24 -0.256,0.704 0,0.64 0.416,0.896 0.432,0.256 1.152,0.256 z m 5.99998,4.432 q -0.528,0 -0.976,-0.112 -0.432,-0.096 -0.688,-0.208 l 0.368,-1.68 q 0.304,0.112 0.592,0.16 0.304,0.064 0.608,0.064 0.48,0 0.8,-0.16 0.32,-0.144 0.544,-0.48 0.24,-0.32 0.416,-0.8 -0.576,-1.12 -1.136,-2.384 -0.56,-1.28 -1.088,-2.72 -0.528,-1.456 -0.976,-3.04 h 2.224 q 0.16,0.656 0.384,1.424 0.224,0.752 0.48,1.552 0.272,0.784 0.56,1.552 0.288,0.768 0.56,1.424 0.336,-0.896 0.64,-1.904 0.304,-1.008 0.576,-2.048 0.288,-1.04 0.528,-2 h 2.144 q -0.448,1.6 -0.928,3.088 -0.48,1.488 -1.024,2.864 -0.528,1.376 -1.12,2.704 -0.448,0.944 -0.912,1.536 -0.448,0.608 -1.056,0.88 -0.608,0.288 -1.52,0.288 z"
         id="path4"
         style="fill:#00e5e6;fill-opacity:1" />
      <path
         style="fill:#0ac18e"
         d="m 265.97358,235.38541 q -0.544,0 -0.944,-0.352 -0.4,-0.368 -0.4,-0.992 0,-0.624 0.4,-0.976 0.4,-0.368 0.944,-0.368 0.544,0 0.944,0.368 0.416,0.352 0.416,0.976 0,0.624 -0.416,0.992 -0.4,0.352 -0.944,0.352 z m 7.67601,0.016 q -1.712,0 -2.928,-0.672 -1.216,-0.672 -1.856,-1.968 -0.64,-1.296 -0.64,-3.136 0,-1.376 0.416,-2.448 0.432,-1.088 1.184,-1.824 0.752,-0.752 1.76,-1.136 1.008,-0.384 2.176,-0.384 0.928,0 1.616,0.16 0.688,0.16 1.12,0.352 0.448,0.192 0.624,0.32 l -0.64,1.776 q -0.48,-0.272 -1.152,-0.464 -0.672,-0.208 -1.536,-0.208 -0.912,0 -1.664,0.416 -0.736,0.4 -1.184,1.248 -0.448,0.848 -0.448,2.16 0,1.12 0.336,2 0.352,0.864 1.088,1.376 0.752,0.496 1.92,0.496 1.104,0 1.76,-0.208 0.656,-0.208 1.056,-0.416 l 0.608,1.776 q -0.464,0.272 -1.408,0.528 -0.928,0.256 -2.208,0.256 z m 8.172,-0.048 q -1.04,0 -1.824,-0.256 -0.784,-0.272 -1.232,-0.864 -0.432,-0.608 -0.432,-1.616 0,-0.96 0.48,-1.536 0.496,-0.576 1.312,-0.816 0.816,-0.256 1.744,-0.256 0.464,0 0.848,0.048 0.4,0.048 0.592,0.112 v -0.288 q 0,-0.448 -0.16,-0.8 -0.144,-0.352 -0.528,-0.544 -0.368,-0.208 -1.024,-0.208 -0.688,0 -1.248,0.096 -0.56,0.096 -0.928,0.24 l -0.272,-1.696 q 0.384,-0.128 1.104,-0.256 0.736,-0.144 1.568,-0.144 1.328,0 2.096,0.416 0.768,0.416 1.088,1.168 0.32,0.752 0.32,1.776 v 5.024 q -0.464,0.096 -1.376,0.24 -0.896,0.16 -2.128,0.16 z m 0.16,-1.632 q 0.416,0 0.768,-0.016 0.352,-0.032 0.56,-0.08 v -2.048 q -0.144,-0.048 -0.464,-0.08 -0.304,-0.048 -0.64,-0.048 -0.464,0 -0.88,0.096 -0.4,0.08 -0.656,0.32 -0.256,0.24 -0.256,0.704 0,0.64 0.416,0.896 0.432,0.256 1.152,0.256 z m 7.85598,1.664 q -1.104,0 -1.824,-0.192 -0.704,-0.176 -0.976,-0.304 l 0.384,-1.712 q 0.496,0.192 1.104,0.352 0.624,0.144 1.328,0.144 0.704,0 1.04,-0.16 0.352,-0.16 0.352,-0.608 0,-0.256 -0.176,-0.432 -0.16,-0.176 -0.512,-0.352 -0.336,-0.176 -0.88,-0.384 -0.704,-0.272 -1.264,-0.576 -0.544,-0.32 -0.864,-0.816 -0.304,-0.496 -0.304,-1.28 0,-0.768 0.384,-1.312 0.4,-0.56 1.104,-0.864 0.72,-0.32 1.712,-0.32 0.784,0 1.456,0.144 0.672,0.144 1.04,0.288 l -0.384,1.648 q -0.352,-0.128 -0.848,-0.256 -0.48,-0.128 -1.136,-0.128 -0.592,0 -0.928,0.192 -0.336,0.176 -0.336,0.576 0,0.24 0.128,0.416 0.128,0.176 0.432,0.336 0.304,0.16 0.848,0.368 0.976,0.352 1.536,0.72 0.56,0.368 0.816,0.848 0.256,0.48 0.256,1.2 0,0.816 -0.416,1.36 -0.4,0.544 -1.184,0.832 -0.784,0.272 -1.888,0.272 z m 5.31201,-0.208 v -12.08 l 2.08,-0.336 v 4.112 q 0.304,-0.112 0.704,-0.192 0.416,-0.08 0.8,-0.08 1.36,0 2.112,0.496 0.768,0.48 1.072,1.344 0.304,0.864 0.304,2.016 v 4.72 h -2.08 v -4.432 q 0,-0.848 -0.16,-1.36 -0.144,-0.528 -0.496,-0.752 -0.336,-0.24 -0.976,-0.24 -0.224,0 -0.48,0.048 -0.24,0.032 -0.448,0.08 -0.208,0.048 -0.352,0.096 v 6.56 z"
         id="path5" />
    </g>
  </g>
</svg>
