<?xml version="1.0" encoding="UTF-8" standalone="no"?>
<!-- Created with Inkscape (http://www.inkscape.org/) -->

<svg
   width="507.99988mm"
   height="79.768944mm"
   viewBox="0 0 507.99988 79.768944"
   version="1.1"
   id="svg1"
   xmlns="http://www.w3.org/2000/svg"
   xmlns:svg="http://www.w3.org/2000/svg">
  <defs
     id="defs1" />
  <g
     id="layer1">
    <g
       id="text1"
       style="font-weight:bold;font-size:16px;font-family:Ubuntu;-inkscape-font-specification:'Ubuntu Bold';white-space:pre;fill:#32ffff;stroke:#000000;stroke-width:0;paint-order:stroke fill markers"
       transform="matrix(3.6574145,0,0,3.6574145,-597.34967,-814.73081)"
       aria-label="RecurrentPay.Cash">
      <path
         d="m 163.32567,235.17741 v -10.912 q 0.768,-0.16 1.616,-0.224 0.848,-0.08 1.536,-0.08 2.448,0 3.728,0.896 1.296,0.88 1.296,2.704 0,1.184 -0.56,1.92 -0.56,0.72 -1.584,1.12 0.32,0.4 0.688,0.928 0.384,0.528 0.752,1.136 0.384,0.608 0.736,1.248 0.352,0.64 0.64,1.264 h -2.432 q -0.416,-0.768 -0.88,-1.52 -0.448,-0.768 -0.896,-1.456 -0.448,-0.688 -0.864,-1.184 -0.064,0 -0.128,0.016 -0.048,0 -0.096,0 h -1.36 v 4.144 z m 2.192,-5.888 h 0.88 q 0.96,0 1.584,-0.144 0.64,-0.16 0.944,-0.544 0.32,-0.384 0.32,-1.056 0,-0.64 -0.32,-1.008 -0.304,-0.384 -0.912,-0.544 -0.592,-0.16 -1.392,-0.16 -0.352,0 -0.624,0.032 -0.272,0.016 -0.48,0.032 z m 11.79999,6.096 q -1.504,0 -2.464,-0.56 -0.96,-0.576 -1.44,-1.568 -0.464,-0.992 -0.464,-2.224 0,-1.488 0.576,-2.464 0.576,-0.992 1.472,-1.488 0.896,-0.512 1.904,-0.512 1.152,0 1.984,0.48 0.848,0.48 1.296,1.424 0.464,0.944 0.464,2.368 0,0.176 -0.016,0.4 -0.016,0.224 -0.032,0.4 h -5.488 q 0.064,0.912 0.688,1.424 0.64,0.512 1.776,0.512 0.704,0 1.296,-0.128 0.608,-0.128 0.96,-0.288 l 0.304,1.712 q -0.352,0.176 -1.152,0.336 -0.784,0.176 -1.664,0.176 z m -2.208,-5.216 h 3.504 q -0.016,-0.496 -0.208,-0.912 -0.176,-0.432 -0.544,-0.688 -0.352,-0.256 -0.944,-0.256 -0.576,0 -0.96,0.272 -0.368,0.256 -0.576,0.688 -0.208,0.416 -0.272,0.896 z m 11.34401,5.216 q -1.488,0 -2.432,-0.576 -0.944,-0.576 -1.408,-1.568 -0.448,-0.992 -0.448,-2.256 0,-1.232 0.512,-2.224 0.512,-1.008 1.456,-1.6 0.944,-0.592 2.256,-0.592 0.672,0 1.232,0.128 0.576,0.112 1.056,0.32 l -0.448,1.68 q -0.336,-0.128 -0.736,-0.224 -0.4,-0.096 -0.928,-0.096 -1.136,0 -1.696,0.72 -0.56,0.704 -0.56,1.888 0,0.8 0.224,1.392 0.224,0.576 0.752,0.896 0.528,0.304 1.392,0.304 0.48,0 0.96,-0.096 0.496,-0.096 0.864,-0.256 l 0.32,1.728 q -0.384,0.176 -1.008,0.304 -0.624,0.128 -1.36,0.128 z m 7.50398,-0.032 q -1.376,0 -2.176,-0.496 -0.784,-0.496 -1.104,-1.36 -0.32,-0.88 -0.32,-2.032 v -4.672 h 2.096 v 4.384 q 0,0.848 0.144,1.376 0.16,0.528 0.528,0.768 0.368,0.24 0.976,0.24 0.368,0 0.704,-0.032 0.352,-0.032 0.56,-0.064 v -6.672 h 2.08 v 8.096 q -0.576,0.16 -1.504,0.304 -0.912,0.16 -1.984,0.16 z m 5.85599,-0.176 v -7.952 q 0.576,-0.208 1.408,-0.4 0.848,-0.208 1.904,-0.208 0.272,0 0.64,0.048 0.368,0.032 0.704,0.096 0.352,0.064 0.576,0.16 l -0.352,1.728 q -0.288,-0.08 -0.72,-0.16 -0.416,-0.08 -0.944,-0.08 -0.32,0 -0.656,0.048 -0.32,0.048 -0.48,0.112 v 6.608 z m 6.57599,0 v -7.952 q 0.576,-0.208 1.408,-0.4 0.848,-0.208 1.904,-0.208 0.272,0 0.64,0.048 0.368,0.032 0.704,0.096 0.352,0.064 0.576,0.16 l -0.352,1.728 q -0.288,-0.08 -0.72,-0.16 -0.416,-0.08 -0.944,-0.08 -0.32,0 -0.656,0.048 -0.32,0.048 -0.48,0.112 v 6.608 z m 10.38799,0.208 q -1.504,0 -2.464,-0.56 -0.96,-0.576 -1.44,-1.568 -0.464,-0.992 -0.464,-2.224 0,-1.488 0.576,-2.464 0.576,-0.992 1.472,-1.488 0.896,-0.512 1.904,-0.512 1.152,0 1.984,0.48 0.848,0.48 1.296,1.424 0.464,0.944 0.464,2.368 0,0.176 -0.016,0.4 -0.016,0.224 -0.032,0.4 h -5.488 q 0.064,0.912 0.688,1.424 0.64,0.512 1.776,0.512 0.704,0 1.296,-0.128 0.608,-0.128 0.96,-0.288 l 0.304,1.712 q -0.352,0.176 -1.152,0.336 -0.784,0.176 -1.664,0.176 z m -2.208,-5.216 h 3.504 q -0.016,-0.496 -0.208,-0.912 -0.176,-0.432 -0.544,-0.688 -0.352,-0.256 -0.944,-0.256 -0.576,0 -0.96,0.272 -0.368,0.256 -0.576,0.688 -0.208,0.416 -0.272,0.896 z m 7.48801,5.008 v -8.096 q 0.576,-0.16 1.488,-0.32 0.928,-0.16 2,-0.16 1.408,0 2.176,0.496 0.784,0.48 1.088,1.344 0.32,0.864 0.32,2.016 v 4.72 h -2.08 v -4.432 q 0,-0.848 -0.16,-1.36 -0.144,-0.528 -0.496,-0.752 -0.352,-0.24 -0.992,-0.24 -0.368,0 -0.72,0.048 -0.336,0.032 -0.544,0.064 v 6.672 z m 12.46398,0.192 q -1.232,0 -1.936,-0.432 -0.688,-0.448 -0.976,-1.232 -0.272,-0.8 -0.272,-1.888 v -7.2 l 2.08,-0.336 v 2.512 h 2.96 v 1.744 h -2.96 v 3.28 q 0,0.592 0.128,0.992 0.144,0.384 0.448,0.576 0.32,0.192 0.848,0.192 0.432,0 0.832,-0.08 0.416,-0.096 0.736,-0.224 l 0.304,1.648 q -0.384,0.16 -0.912,0.304 -0.528,0.144 -1.28,0.144 z m 3.92,-0.192 v -10.912 q 0.768,-0.16 1.648,-0.224 0.88,-0.08 1.568,-0.08 2.448,0 3.728,0.88 1.296,0.88 1.296,2.784 0,1.312 -0.592,2.144 -0.592,0.816 -1.744,1.2 -1.136,0.368 -2.768,0.368 h -0.944 v 3.84 z m 2.192,-5.712 h 0.912 q 0.928,0 1.568,-0.16 0.656,-0.16 0.976,-0.56 0.336,-0.4 0.336,-1.136 0,-0.704 -0.336,-1.088 -0.336,-0.384 -0.944,-0.528 -0.592,-0.16 -1.36,-0.16 -0.336,0 -0.64,0.032 -0.304,0.016 -0.512,0.032 z m 10.44399,5.888 q -1.04,0 -1.824,-0.256 -0.784,-0.272 -1.232,-0.864 -0.432,-0.608 -0.432,-1.616 0,-0.96 0.48,-1.536 0.496,-0.576 1.312,-0.816 0.816,-0.256 1.744,-0.256 0.464,0 0.848,0.048 0.4,0.048 0.592,0.112 v -0.288 q 0,-0.448 -0.16,-0.8 -0.144,-0.352 -0.528,-0.544 -0.368,-0.208 -1.024,-0.208 -0.688,0 -1.248,0.096 -0.56,0.096 -0.928,0.24 l -0.272,-1.696 q 0.384,-0.128 1.104,-0.256 0.736,-0.144 1.568,-0.144 1.328,0 2.096,0.416 0.768,0.416 1.088,1.168 0.32,0.752 0.32,1.776 v 5.024 q -0.464,0.096 -1.376,0.24 -0.896,0.16 -2.128,0.16 z m 0.16,-1.632 q 0.416,0 0.768,-0.016 0.352,-0.032 0.56,-0.08 v -2.048 q -0.144,-0.048 -0.464,-0.08 -0.304,-0.048 -0.64,-0.048 -0.464,0 -0.88,0.096 -0.4,0.08 -0.656,0.32 -0.256,0.24 -0.256,0.704 0,0.64 0.416,0.896 0.432,0.256 1.152,0.256 z m 5.99998,4.432 q -0.528,0 -0.976,-0.112 -0.432,-0.096 -0.688,-0.208 l 0.368,-1.68 q 0.304,0.112 0.592,0.16 0.304,0.064 0.608,0.064 0.48,0 0.8,-0.16 0.32,-0.144 0.544,-0.48 0.24,-0.32 0.416,-0.8 -0.576,-1.12 -1.136,-2.384 -0.56,-1.28 -1.088,-2.72 -0.528,-1.456 -0.976,-3.04 h 2.224 q 0.16,0.656 0.384,1.424 0.224,0.752 0.48,1.552 0.272,0.784 0.56,1.552 0.288,0.768 0.56,1.424 0.336,-0.896 0.64,-1.904 0.304,-1.008 0.576,-2.048 0.288,-1.04 0.528,-2 h 2.144 q -0.448,1.6 -0.928,3.088 -0.48,1.488 -1.024,2.864 -0.528,1.376 -1.12,2.704 -0.448,0.944 -0.912,1.536 -0.448,0.608 -1.056,0.88 -0.608,0.288 -1.52,0.288 z"
         id="path4"
         style="fill:#00e5e6;fill-opacity:1" />
      <path
         style="fill:#0ac18e"
         d="m 265.97358,235.38541 q -0.544,0 -0.944,-0.352 -0.4,-0.368 -0.4,-0.992 0,-0.624 0.4,-0.976 0.4,-0.368 0.944,-0.368 0.544,0 0.944,0.368 0.416,0.352 0.416,0.976 0,0.624 -0.416,0.992 -0.4,0.352 -0.944,0.352 z m 7.67601,0.016 q -1.712,0 -2.928,-0.672 -1.216,-0.672 -1.856,-1.968 -0.64,-1.296 -0.64,-3.136 0,-1.376 0.416,-2.448 0.432,-1.088 1.184,-1.824 0.752,-0.752 1.76,-1.136 1.008,-0.384 2.176,-0.384 0.928,0 1.616,0.16 0.688,0.16 1.12,0.352 0.448,0.192 0.624,0.32 l -0.64,1.776 q -0.48,-0.272 -1.152,-0.464 -0.672,-0.208 -1.536,-0.208 -0.912,0 -1.664,0.416 -0.736,0.4 -1.184,1.248 -0.448,0.848 -0.448,2.16 0,1.12 0.336,2 0.352,0.864 1.088,1.376 0.752,0.496 1.92,0.496 1.104,0 1.76,-0.208 0.656,-0.208 1.056,-0.416 l 0.608,1.776 q -0.464,0.272 -1.408,0.528 -0.928,0.256 -2.208,0.256 z m 8.172,-0.048 q -1.04,0 -1.824,-0.256 -0.784,-0.272 -1.232,-0.864 -0.432,-0.608 -0.432,-1.616 0,-0.96 0.48,-1.536 0.496,-0.576 1.312,-0.816 0.816,-0.256 1.744,-0.256 0.464,0 0.848,0.048 0.4,0.048 0.592,0.112 v -0.288 q 0,-0.448 -0.16,-0.8 -0.144,-0.352 -0.528,-0.544 -0.368,-0.208 -1.024,-0.208 -0.688,0 -1.248,0.096 -0.56,0.096 -0.928,0.24 l -0.272,-1.696 q 0.384,-0.128 1.104,-0.256 0.736,-0.144 1.568,-0.144 1.328,0 2.096,0.416 0.768,0.416 1.088,1.168 0.32,0.752 0.32,1.776 v 5.024 q -0.464,0.096 -1.376,0.24 -0.896,0.16 -2.128,0.16 z m 0.16,-1.632 q 0.416,0 0.768,-0.016 0.352,-0.032 0.56,-0.08 v -2.048 q -0.144,-0.048 -0.464,-0.08 -0.304,-0.048 -0.64,-0.048 -0.464,0 -0.88,0.096 -0.4,0.08 -0.656,0.32 -0.256,0.24 -0.256,0.704 0,0.64 0.416,0.896 0.432,0.256 1.152,0.256 z m 7.85598,1.664 q -1.104,0 -1.824,-0.192 -0.704,-0.176 -0.976,-0.304 l 0.384,-1.712 q 0.496,0.192 1.104,0.352 0.624,0.144 1.328,0.144 0.704,0 1.04,-0.16 0.352,-0.16 0.352,-0.608 0,-0.256 -0.176,-0.432 -0.16,-0.176 -0.512,-0.352 -0.336,-0.176 -0.88,-0.384 -0.704,-0.272 -1.264,-0.576 -0.544,-0.32 -0.864,-0.816 -0.304,-0.496 -0.304,-1.28 0,-0.768 0.384,-1.312 0.4,-0.56 1.104,-0.864 0.72,-0.32 1.712,-0.32 0.784,0 1.456,0.144 0.672,0.144 1.04,0.288 l -0.384,1.648 q -0.352,-0.128 -0.848,-0.256 -0.48,-0.128 -1.136,-0.128 -0.592,0 -0.928,0.192 -0.336,0.176 -0.336,0.576 0,0.24 0.128,0.416 0.128,0.176 0.432,0.336 0.304,0.16 0.848,0.368 0.976,0.352 1.536,0.72 0.56,0.368 0.816,0.848 0.256,0.48 0.256,1.2 0,0.816 -0.416,1.36 -0.4,0.544 -1.184,0.832 -0.784,0.272 -1.888,0.272 z m 5.31201,-0.208 v -12.08 l 2.08,-0.336 v 4.112 q 0.304,-0.112 0.704,-0.192 0.416,-0.08 0.8,-0.08 1.36,0 2.112,0.496 0.768,0.48 1.072,1.344 0.304,0.864 0.304,2.016 v 4.72 h -2.08 v -4.432 q 0,-0.848 -0.16,-1.36 -0.144,-0.528 -0.496,-0.752 -0.336,-0.24 -0.976,-0.24 -0.224,0 -0.48,0.048 -0.24,0.032 -0.448,0.08 -0.208,0.048 -0.352,0.096 v 6.56 z"
         id="path5" />
      <path
         style="font-size:4.85757px;fill:#000000;stroke:none"
         d="m 178.0902,243.6684 v -3.31287 q 0.23316,-0.0486 0.49061,-0.068 0.25746,-0.0243 0.46633,-0.0243 0.74321,0 1.13182,0.27202 0.39346,0.26717 0.39346,0.82093 0,0.35946 -0.17002,0.58291 -0.17001,0.21859 -0.4809,0.34003 0.0972,0.12144 0.20888,0.28174 0.11658,0.1603 0.22831,0.34489 0.11658,0.18459 0.22344,0.37889 0.10687,0.1943 0.19431,0.38375 h -0.73835 q -0.1263,-0.23317 -0.26717,-0.46147 -0.13601,-0.23317 -0.27202,-0.44204 -0.13602,-0.20888 -0.26231,-0.35946 -0.0194,0 -0.0389,0.005 -0.0146,0 -0.0292,0 h -0.41289 v 1.25811 z m 0.66549,-1.78759 h 0.26716 q 0.29146,0 0.4809,-0.0437 0.19431,-0.0486 0.2866,-0.16516 0.0971,-0.11658 0.0971,-0.32059 0,-0.19431 -0.0971,-0.30603 -0.0923,-0.11658 -0.27688,-0.16516 -0.17973,-0.0486 -0.42261,-0.0486 -0.10687,0 -0.18945,0.01 -0.0826,0.005 -0.14572,0.01 z m 3.58245,1.85073 q -0.45661,0 -0.74806,-0.17001 -0.29146,-0.17487 -0.43718,-0.47604 -0.14087,-0.30117 -0.14087,-0.6752 0,-0.45176 0.17487,-0.74807 0.17487,-0.30117 0.44689,-0.45175 0.27203,-0.15545 0.57806,-0.15545 0.34974,0 0.60233,0.14573 0.25746,0.14573 0.39347,0.43232 0.14087,0.2866 0.14087,0.71892 0,0.0534 -0.005,0.12144 -0.005,0.068 -0.01,0.12144 h -1.66614 q 0.0194,0.27688 0.20887,0.43233 0.19431,0.15544 0.53919,0.15544 0.21374,0 0.39347,-0.0389 0.18458,-0.0389 0.29145,-0.0874 l 0.0923,0.51976 q -0.10686,0.0534 -0.34974,0.10201 -0.23802,0.0534 -0.50519,0.0534 z m -0.67034,-1.58356 h 1.06381 q -0.005,-0.15059 -0.0631,-0.27688 -0.0534,-0.13116 -0.16516,-0.20888 -0.10687,-0.0777 -0.2866,-0.0777 -0.17487,0 -0.29145,0.0826 -0.11173,0.0777 -0.17487,0.20887 -0.0632,0.1263 -0.0826,0.27203 z m 3.44402,1.58356 q -0.45176,0 -0.73835,-0.17487 -0.2866,-0.17487 -0.42747,-0.47604 -0.13601,-0.30117 -0.13601,-0.68492 0,-0.37403 0.15544,-0.6752 0.15544,-0.30603 0.44204,-0.48576 0.28659,-0.17973 0.68492,-0.17973 0.20401,0 0.37403,0.0389 0.17487,0.034 0.3206,0.0972 l -0.13601,0.51004 q -0.10201,-0.0389 -0.22345,-0.068 -0.12144,-0.0291 -0.28174,-0.0291 -0.34489,0 -0.5149,0.21859 -0.17002,0.21373 -0.17002,0.57319 0,0.24288 0.068,0.42261 0.068,0.17487 0.2283,0.27203 0.1603,0.0923 0.42261,0.0923 0.14573,0 0.29146,-0.0291 0.15058,-0.0291 0.2623,-0.0777 l 0.0972,0.52462 q -0.11659,0.0534 -0.30603,0.0923 -0.18945,0.0389 -0.41289,0.0389 z m 2.27819,-0.01 q -0.41775,0 -0.66063,-0.15059 -0.23802,-0.15058 -0.33517,-0.41289 -0.0971,-0.26717 -0.0971,-0.61691 v -1.41841 h 0.63634 v 1.33097 q 0,0.25745 0.0437,0.41775 0.0486,0.1603 0.1603,0.23317 0.11172,0.0729 0.29631,0.0729 0.11172,0 0.21373,-0.01 0.10687,-0.01 0.17002,-0.0194 v -2.02561 h 0.63148 v 2.45793 q -0.17487,0.0486 -0.45661,0.0923 -0.27688,0.0486 -0.60234,0.0486 z m 1.77787,-0.0534 v -2.41422 q 0.17487,-0.0631 0.42746,-0.12144 0.25746,-0.0631 0.57806,-0.0631 0.0826,0 0.1943,0.0146 0.11172,0.01 0.21373,0.0291 0.10687,0.0194 0.17487,0.0486 l -0.10686,0.52462 q -0.0874,-0.0243 -0.21859,-0.0486 -0.1263,-0.0243 -0.2866,-0.0243 -0.0971,0 -0.19916,0.0146 -0.0971,0.0146 -0.14573,0.034 v 2.00618 z m 1.99646,0 v -2.41422 q 0.17487,-0.0631 0.42746,-0.12144 0.25745,-0.0631 0.57805,-0.0631 0.0826,0 0.19431,0.0146 0.11172,0.01 0.21373,0.0291 0.10687,0.0194 0.17487,0.0486 l -0.10686,0.52462 q -0.0874,-0.0243 -0.2186,-0.0486 -0.12629,-0.0243 -0.28659,-0.0243 -0.0971,0 -0.19916,0.0146 -0.0971,0.0146 -0.14573,0.034 v 2.00618 z m 3.15377,0.0631 q -0.45661,0 -0.74806,-0.17001 -0.29146,-0.17487 -0.43718,-0.47604 -0.14087,-0.30117 -0.14087,-0.6752 0,-0.45176 0.17487,-0.74807 0.17487,-0.30117 0.44689,-0.45175 0.27203,-0.15545 0.57806,-0.15545 0.34974,0 0.60233,0.14573 0.25746,0.14573 0.39347,0.43232 0.14087,0.2866 0.14087,0.71892 0,0.0534 -0.005,0.12144 -0.005,0.068 -0.01,0.12144 h -1.66614 q 0.0194,0.27688 0.20887,0.43233 0.19431,0.15544 0.53919,0.15544 0.21374,0 0.39347,-0.0389 0.18458,-0.0389 0.29145,-0.0874 l 0.0923,0.51976 q -0.10686,0.0534 -0.34974,0.10201 -0.23802,0.0534 -0.50519,0.0534 z m -0.67034,-1.58356 h 1.06381 q -0.005,-0.15059 -0.0632,-0.27688 -0.0534,-0.13116 -0.16516,-0.20888 -0.10687,-0.0777 -0.2866,-0.0777 -0.17487,0 -0.29145,0.0826 -0.11173,0.0777 -0.17487,0.20887 -0.0631,0.1263 -0.0826,0.27203 z m 2.27334,1.52042 v -2.45793 q 0.17487,-0.0486 0.45176,-0.0972 0.28173,-0.0486 0.60719,-0.0486 0.42747,0 0.66063,0.15058 0.23802,0.14573 0.33032,0.40804 0.0971,0.26231 0.0971,0.61205 v 1.43299 h -0.63149 v -1.34555 q 0,-0.25745 -0.0486,-0.41289 -0.0437,-0.1603 -0.15059,-0.22831 -0.10686,-0.0729 -0.30117,-0.0729 -0.11172,0 -0.21859,0.0146 -0.10201,0.01 -0.16515,0.0194 v 2.02561 z m 3.78404,0.0583 q -0.37403,0 -0.58776,-0.13116 -0.20888,-0.13601 -0.29631,-0.37403 -0.0826,-0.24288 -0.0826,-0.57319 v -2.18591 l 0.63148,-0.10201 v 0.76264 h 0.89865 v 0.52947 h -0.89865 v 0.99581 q 0,0.17973 0.0389,0.30117 0.0437,0.11658 0.13602,0.17487 0.0971,0.0583 0.25745,0.0583 0.13115,0 0.25259,-0.0243 0.1263,-0.0291 0.22345,-0.068 l 0.0923,0.50032 q -0.11658,0.0486 -0.27688,0.0923 -0.1603,0.0437 -0.38861,0.0437 z m 2.30249,0.84036 v -3.35658 q 0.12144,-0.0389 0.2866,-0.068 0.16515,-0.034 0.3546,-0.0534 0.18944,-0.0243 0.37403,-0.0243 0.40804,0 0.69949,0.16516 0.29631,0.1603 0.45176,0.46146 0.15544,0.29632 0.15544,0.70435 0,0.39347 -0.13116,0.68978 -0.12629,0.29631 -0.37889,0.46632 -0.24773,0.16516 -0.61205,0.16516 -0.17001,0 -0.31574,-0.0389 -0.14087,-0.034 -0.2526,-0.0923 v 0.98123 z m 1.0881,-1.38927 q 0.15544,0 0.2623,-0.0486 0.11173,-0.0534 0.18459,-0.15059 0.0729,-0.10201 0.10687,-0.24288 0.034,-0.14087 0.034,-0.32545 0,-0.24288 -0.0777,-0.42261 -0.0777,-0.17973 -0.22831,-0.27688 -0.14572,-0.10201 -0.35946,-0.10201 -0.12629,0 -0.22344,0.0146 -0.0971,0.01 -0.15545,0.0194 v 1.40869 q 0.0729,0.0486 0.19431,0.0874 0.12629,0.0389 0.26231,0.0389 z m 2.70567,0.54405 q -0.31575,0 -0.55377,-0.0777 -0.23802,-0.0826 -0.37403,-0.26231 -0.13115,-0.18459 -0.13115,-0.49062 0,-0.29145 0.14572,-0.46632 0.15059,-0.17487 0.39832,-0.24774 0.24774,-0.0777 0.52948,-0.0777 0.14087,0 0.25745,0.0146 0.12144,0.0146 0.17973,0.034 v -0.0874 q 0,-0.13601 -0.0486,-0.24288 -0.0437,-0.10686 -0.1603,-0.16516 -0.11173,-0.0631 -0.31089,-0.0631 -0.20887,0 -0.37889,0.0291 -0.17001,0.0291 -0.28174,0.0729 l -0.0826,-0.5149 q 0.11658,-0.0389 0.33518,-0.0777 0.22344,-0.0437 0.47604,-0.0437 0.40318,0 0.63634,0.1263 0.23316,0.1263 0.33031,0.3546 0.0971,0.22831 0.0971,0.53919 v 1.52528 q -0.14086,0.0291 -0.41775,0.0729 -0.27202,0.0486 -0.64605,0.0486 z m 0.0486,-0.49547 q 0.1263,0 0.23317,-0.005 0.10686,-0.01 0.17001,-0.0243 V 242.575 q -0.0437,-0.0146 -0.14087,-0.0243 -0.0923,-0.0146 -0.1943,-0.0146 -0.14087,0 -0.26717,0.0292 -0.12144,0.0243 -0.19916,0.0971 -0.0777,0.0729 -0.0777,0.21373 0,0.1943 0.1263,0.27203 0.13115,0.0777 0.34974,0.0777 z m 1.82159,1.34554 q -0.1603,0 -0.29632,-0.034 -0.13115,-0.0291 -0.20887,-0.0632 l 0.11172,-0.51004 q 0.0923,0.034 0.17973,0.0486 0.0923,0.0194 0.18459,0.0194 0.14573,0 0.24288,-0.0486 0.0971,-0.0437 0.16516,-0.14573 0.0729,-0.0971 0.12629,-0.24288 -0.17487,-0.34003 -0.34488,-0.72378 -0.17002,-0.3886 -0.33032,-0.82578 -0.1603,-0.44204 -0.29631,-0.92294 h 0.6752 q 0.0486,0.19916 0.11658,0.43232 0.068,0.22831 0.14573,0.47119 0.0826,0.23802 0.17001,0.47118 0.0874,0.23316 0.17002,0.43233 0.10201,-0.27203 0.1943,-0.57806 0.0923,-0.30602 0.17487,-0.62176 0.0874,-0.31575 0.1603,-0.6072 h 0.65092 q -0.13601,0.48576 -0.28174,0.93751 -0.14573,0.45175 -0.31088,0.86951 -0.1603,0.41775 -0.34003,0.82092 -0.13602,0.2866 -0.27689,0.46633 -0.13601,0.18459 -0.3206,0.26717 -0.18458,0.0874 -0.46146,0.0874 z m 2.41421,-0.9035 v -2.45793 q 0.17973,-0.0486 0.45175,-0.0972 0.27688,-0.0486 0.5732,-0.0486 0.26716,0 0.43718,0.0729 0.17487,0.068 0.28659,0.17487 0.0923,-0.068 0.21374,-0.12143 0.12144,-0.0534 0.26231,-0.0874 0.14087,-0.0389 0.27688,-0.0389 0.40318,0 0.61691,0.15058 0.21859,0.14573 0.29631,0.40804 0.0826,0.26231 0.0826,0.61205 v 1.43299 h -0.63149 v -1.34555 q 0,-0.25259 -0.0437,-0.40804 -0.0389,-0.1603 -0.13602,-0.23316 -0.0971,-0.0729 -0.26716,-0.0729 -0.0729,0 -0.15544,0.0194 -0.0777,0.0194 -0.14573,0.0534 -0.068,0.0292 -0.11658,0.0583 0.0389,0.11658 0.0486,0.24774 0.0146,0.13115 0.0146,0.27688 v 1.40384 h -0.63149 v -1.34555 q 0,-0.25259 -0.0437,-0.40804 -0.0389,-0.1603 -0.13601,-0.23316 -0.0971,-0.0729 -0.27202,-0.0729 -0.068,0 -0.13601,0.005 -0.0632,0.005 -0.11659,0.0146 -0.0534,0.005 -0.0971,0.0146 v 2.02561 z m 5.38219,0.0631 q -0.45662,0 -0.74807,-0.17001 -0.29145,-0.17487 -0.43718,-0.47604 -0.14087,-0.30117 -0.14087,-0.6752 0,-0.45176 0.17487,-0.74807 0.17487,-0.30117 0.4469,-0.45175 0.27202,-0.15545 0.57805,-0.15545 0.34974,0 0.60234,0.14573 0.25745,0.14573 0.39346,0.43232 0.14087,0.2866 0.14087,0.71892 0,0.0534 -0.005,0.12144 -0.005,0.068 -0.01,0.12144 h -1.66615 q 0.0194,0.27688 0.20888,0.43233 0.1943,0.15544 0.53919,0.15544 0.21373,0 0.39346,-0.0389 0.18459,-0.0389 0.29145,-0.0874 l 0.0923,0.51976 q -0.10687,0.0534 -0.34975,0.10201 -0.23802,0.0534 -0.50518,0.0534 z m -0.67035,-1.58356 h 1.06381 q -0.005,-0.15059 -0.0632,-0.27688 -0.0534,-0.13116 -0.16516,-0.20888 -0.10686,-0.0777 -0.28659,-0.0777 -0.17488,0 -0.29146,0.0826 -0.11172,0.0777 -0.17487,0.20887 -0.0632,0.1263 -0.0826,0.27203 z m 2.27334,1.52042 v -2.45793 q 0.17487,-0.0486 0.45176,-0.0972 0.28174,-0.0486 0.60719,-0.0486 0.42747,0 0.66063,0.15058 0.23802,0.14573 0.33032,0.40804 0.0971,0.26231 0.0971,0.61205 v 1.43299 h -0.63149 v -1.34555 q 0,-0.25745 -0.0486,-0.41289 -0.0437,-0.1603 -0.15059,-0.22831 -0.10686,-0.0729 -0.30117,-0.0729 -0.11172,0 -0.21859,0.0146 -0.10201,0.01 -0.16515,0.0194 v 2.02561 z m 3.78405,0.0583 q -0.37404,0 -0.58777,-0.13116 -0.20888,-0.13601 -0.29631,-0.37403 -0.0826,-0.24288 -0.0826,-0.57319 v -2.18591 l 0.63148,-0.10201 v 0.76264 h 0.89865 v 0.52947 h -0.89865 v 0.99581 q 0,0.17973 0.0389,0.30117 0.0437,0.11658 0.13602,0.17487 0.0972,0.0583 0.25745,0.0583 0.13115,0 0.25259,-0.0243 0.1263,-0.0291 0.22345,-0.068 l 0.0923,0.50032 q -0.11658,0.0486 -0.27688,0.0923 -0.1603,0.0437 -0.3886,0.0437 z m 1.8313,0.005 q -0.33517,0 -0.55376,-0.0583 -0.21374,-0.0534 -0.29632,-0.0923 l 0.11659,-0.51976 q 0.15058,0.0583 0.33517,0.10687 0.18944,0.0437 0.40318,0.0437 0.21373,0 0.31574,-0.0486 0.10687,-0.0486 0.10687,-0.18459 0,-0.0777 -0.0534,-0.13115 -0.0486,-0.0534 -0.15544,-0.10687 -0.10201,-0.0534 -0.26717,-0.11658 -0.21373,-0.0826 -0.38374,-0.17487 -0.16516,-0.0972 -0.26231,-0.24774 -0.0923,-0.15058 -0.0923,-0.38861 0,-0.23316 0.11658,-0.39832 0.12144,-0.17001 0.33518,-0.26231 0.21859,-0.0971 0.51976,-0.0971 0.23802,0 0.44204,0.0437 0.20401,0.0437 0.31574,0.0874 l -0.11658,0.50033 q -0.10687,-0.0389 -0.25745,-0.0777 -0.14573,-0.0389 -0.34489,-0.0389 -0.17973,0 -0.28174,0.0583 -0.10201,0.0534 -0.10201,0.17487 0,0.0729 0.0389,0.1263 0.0389,0.0534 0.13115,0.102 0.0923,0.0486 0.25746,0.11173 0.29631,0.10687 0.46632,0.21859 0.17002,0.11172 0.24774,0.25745 0.0777,0.14573 0.0777,0.36432 0,0.24773 -0.1263,0.41289 -0.12144,0.16516 -0.35946,0.2526 -0.23802,0.0826 -0.57319,0.0826 z m 2.76396,-0.0631 v -2.54537 h 0.63148 v 2.54537 z m 0.31574,-2.94855 q -0.15544,0 -0.27203,-0.10201 -0.11658,-0.10686 -0.11658,-0.28659 0,-0.17973 0.11658,-0.28174 0.11659,-0.10687 0.27203,-0.10687 0.1603,0 0.27202,0.10687 0.11658,0.10201 0.11658,0.28174 0,0.17973 -0.11658,0.28659 -0.11172,0.10201 -0.27202,0.10201 z m 1.03466,2.94855 v -2.45793 q 0.17487,-0.0486 0.45175,-0.0972 0.28174,-0.0486 0.6072,-0.0486 0.42746,0 0.66063,0.15058 0.23802,0.14573 0.33031,0.40804 0.0971,0.26231 0.0971,0.61205 v 1.43299 h -0.63148 v -1.34555 q 0,-0.25745 -0.0486,-0.41289 -0.0437,-0.1603 -0.15058,-0.22831 -0.10687,-0.0729 -0.30117,-0.0729 -0.11172,0 -0.21859,0.0146 -0.10201,0.01 -0.16516,0.0194 v 2.02561 z m 5.08587,0.0389 q -0.17002,0 -0.34489,-0.01 -0.17487,-0.005 -0.3546,-0.0291 -0.17488,-0.0194 -0.35461,-0.0583 v -3.25458 q 0.15059,-0.034 0.3206,-0.0534 0.17002,-0.0194 0.34003,-0.0291 0.17488,-0.01 0.32546,-0.01 0.41289,0 0.73835,0.0874 0.32546,0.0874 0.5149,0.29145 0.18945,0.19916 0.18945,0.55376 0,0.21374 -0.10687,0.38375 -0.10686,0.16516 -0.31088,0.27202 0.31574,0.11173 0.4469,0.31575 0.13601,0.20401 0.13601,0.49547 0,0.51976 -0.38861,0.78207 -0.38375,0.26231 -1.15124,0.26231 z m 0.0146,-0.54405 q 0.24774,0 0.43718,-0.0437 0.18945,-0.0486 0.30117,-0.15544 0.11172,-0.11173 0.11172,-0.31089 0,-0.27202 -0.1943,-0.37889 -0.1943,-0.10686 -0.5489,-0.10686 h -0.52462 v 0.97151 q 0.0777,0.01 0.18459,0.0194 0.11172,0.005 0.23316,0.005 z m -0.41775,-1.50585 h 0.42747 q 0.23802,0 0.39346,-0.0389 0.15544,-0.0437 0.2283,-0.14087 0.0777,-0.0971 0.0777,-0.25259 0,-0.23317 -0.18459,-0.32546 -0.17973,-0.0971 -0.5149,-0.0971 -0.11173,0 -0.22831,0.005 -0.11658,0.005 -0.19916,0.0146 z m 4.0755,2.07904 q -0.51976,0 -0.88893,-0.20402 -0.36918,-0.20401 -0.56348,-0.59748 -0.19431,-0.39346 -0.19431,-0.95208 0,-0.41775 0.1263,-0.74321 0.13116,-0.33031 0.35946,-0.55376 0.22831,-0.22831 0.53433,-0.34489 0.30603,-0.11658 0.66063,-0.11658 0.28174,0 0.49062,0.0486 0.20887,0.0486 0.34003,0.10687 0.13601,0.0583 0.18944,0.0971 l -0.1943,0.53919 q -0.14573,-0.0826 -0.34974,-0.14087 -0.20402,-0.0632 -0.46633,-0.0632 -0.27688,0 -0.50519,0.1263 -0.22345,0.12144 -0.35946,0.37889 -0.13601,0.25745 -0.13601,0.65577 0,0.34003 0.10201,0.6072 0.10687,0.26231 0.33031,0.41775 0.22831,0.15059 0.58291,0.15059 0.33517,0 0.53433,-0.0632 0.19917,-0.0631 0.3206,-0.1263 l 0.18459,0.53919 q -0.14087,0.0826 -0.42746,0.1603 -0.28174,0.0777 -0.67035,0.0777 z m 1.59814,-0.068 v -3.3663 h 0.66549 v 1.32612 h 1.39412 v -1.32612 h 0.66549 v 3.3663 h -0.66549 v -1.47185 h -1.39412 v 1.47185 z m 3.73548,0.78692 -0.49548,-0.13115 q 0.11173,-0.29631 0.15545,-0.56834 0.0437,-0.27202 0.0437,-0.47118 0,-0.0389 -0.005,-0.0971 0,-0.0632 -0.005,-0.11659 0,-0.0583 0,-0.0777 h 0.66549 q 0.01,0.0972 0.01,0.14573 0.005,0.0437 0.005,0.0729 0,0.29632 -0.10201,0.62663 -0.0971,0.33032 -0.27202,0.61691 z m 2.77367,-0.72378 q -0.33518,0 -0.55377,-0.0583 -0.21373,-0.0534 -0.29631,-0.0923 l 0.11658,-0.51976 q 0.15059,0.0583 0.33517,0.10687 0.18945,0.0437 0.40318,0.0437 0.21374,0 0.31574,-0.0486 0.10687,-0.0486 0.10687,-0.18459 0,-0.0777 -0.0534,-0.13115 -0.0486,-0.0534 -0.15544,-0.10687 -0.10201,-0.0534 -0.26717,-0.11658 -0.21373,-0.0826 -0.38375,-0.17487 -0.16516,-0.0972 -0.26231,-0.24774 -0.0923,-0.15058 -0.0923,-0.38861 0,-0.23316 0.11658,-0.39832 0.12144,-0.17001 0.33517,-0.26231 0.21859,-0.0971 0.51976,-0.0971 0.23802,0 0.44204,0.0437 0.20402,0.0437 0.31574,0.0874 l -0.11658,0.50033 q -0.10686,-0.0389 -0.25745,-0.0777 -0.14573,-0.0389 -0.34489,-0.0389 -0.17973,0 -0.28174,0.0583 -0.102,0.0534 -0.102,0.17487 0,0.0729 0.0389,0.1263 0.0389,0.0534 0.13115,0.102 0.0923,0.0486 0.25745,0.11173 0.29631,0.10687 0.46633,0.21859 0.17001,0.11172 0.24773,0.25745 0.0777,0.14573 0.0777,0.36432 0,0.24773 -0.1263,0.41289 -0.12144,0.16516 -0.35946,0.2526 -0.23802,0.0826 -0.57319,0.0826 z m 2.55508,-0.005 q -0.37403,0 -0.58776,-0.13116 -0.20888,-0.13601 -0.29632,-0.37403 -0.0826,-0.24288 -0.0826,-0.57319 v -2.18591 l 0.63148,-0.10201 v 0.76264 h 0.89865 v 0.52947 h -0.89865 v 0.99581 q 0,0.17973 0.0389,0.30117 0.0437,0.11658 0.13601,0.17487 0.0971,0.0583 0.25745,0.0583 0.13116,0 0.2526,-0.0243 0.12629,-0.0291 0.22345,-0.068 l 0.0923,0.50032 q -0.11658,0.0486 -0.27688,0.0923 -0.1603,0.0437 -0.38861,0.0437 z m 1.96002,-0.005 q -0.31574,0 -0.55376,-0.0777 -0.23802,-0.0826 -0.37403,-0.26231 -0.13116,-0.18459 -0.13116,-0.49062 0,-0.29145 0.14573,-0.46632 0.15058,-0.17487 0.39832,-0.24774 0.24774,-0.0777 0.52947,-0.0777 0.14087,0 0.25746,0.0146 0.12143,0.0146 0.17973,0.034 v -0.0874 q 0,-0.13601 -0.0486,-0.24288 -0.0437,-0.10686 -0.1603,-0.16516 -0.11172,-0.0631 -0.31088,-0.0631 -0.20888,0 -0.37889,0.0291 -0.17002,0.0291 -0.28174,0.0729 l -0.0826,-0.5149 q 0.11658,-0.0389 0.33517,-0.0777 0.22345,-0.0437 0.47604,-0.0437 0.40318,0 0.63634,0.1263 0.23317,0.1263 0.33032,0.3546 0.0971,0.22831 0.0971,0.53919 v 1.52528 q -0.14087,0.0291 -0.41775,0.0729 -0.27203,0.0486 -0.64606,0.0486 z m 0.0486,-0.49547 q 0.12629,0 0.23316,-0.005 0.10687,-0.01 0.17002,-0.0243 v -0.62177 q -0.0437,-0.0146 -0.14087,-0.0243 -0.0923,-0.0146 -0.19431,-0.0146 -0.14087,0 -0.26716,0.0292 -0.12144,0.0243 -0.19916,0.0971 -0.0777,0.0729 -0.0777,0.21373 0,0.1943 0.12629,0.27203 0.13116,0.0777 0.34975,0.0777 z m 2.72023,0.50518 q -0.18458,0 -0.37403,-0.0243 -0.18944,-0.0194 -0.3546,-0.0486 -0.16516,-0.034 -0.2866,-0.0729 v -3.58489 l 0.63149,-0.10201 v 1.30183 q 0.11172,-0.0534 0.25259,-0.0923 0.14573,-0.0389 0.31574,-0.0389 0.36432,0 0.61205,0.16515 0.2526,0.16516 0.3789,0.46633 0.13115,0.29631 0.13115,0.69463 0,0.40804 -0.15544,0.70921 -0.15544,0.29631 -0.45176,0.46147 -0.29145,0.16515 -0.69949,0.16515 z m -0.005,-0.54404 q 0.21373,0 0.35946,-0.0971 0.15058,-0.10201 0.2283,-0.28174 0.0777,-0.17973 0.0777,-0.42747 0,-0.18459 -0.034,-0.32546 -0.034,-0.14572 -0.10687,-0.24288 -0.0729,-0.102 -0.18458,-0.15058 -0.10687,-0.0534 -0.26231,-0.0534 -0.13602,0 -0.26231,0.0389 -0.12144,0.0389 -0.1943,0.0923 v 1.41355 q 0.0583,0.01 0.15544,0.0243 0.0971,0.01 0.22345,0.01 z m 2.83197,0.52947 q -0.36918,-0.01 -0.5732,-0.10686 -0.20402,-0.0972 -0.28659,-0.28174 -0.0777,-0.18459 -0.0777,-0.4469 v -2.88054 l 0.63635,-0.10201 v 2.86597 q 0,0.20402 0.0729,0.30602 0.0729,0.0972 0.3206,0.12144 z m 1.73414,0.0146 q -0.45661,0 -0.74806,-0.17001 -0.29146,-0.17487 -0.43718,-0.47604 -0.14087,-0.30117 -0.14087,-0.6752 0,-0.45176 0.17487,-0.74807 0.17487,-0.30117 0.4469,-0.45175 0.27202,-0.15545 0.57805,-0.15545 0.34974,0 0.60234,0.14573 0.25745,0.14573 0.39346,0.43232 0.14087,0.2866 0.14087,0.71892 0,0.0534 -0.005,0.12144 -0.005,0.068 -0.01,0.12144 h -1.66615 q 0.0194,0.27688 0.20887,0.43233 0.19431,0.15544 0.5392,0.15544 0.21373,0 0.39346,-0.0389 0.18459,-0.0389 0.29145,-0.0874 l 0.0923,0.51976 q -0.10687,0.0534 -0.34975,0.10201 -0.23802,0.0534 -0.50519,0.0534 z m -0.67034,-1.58356 h 1.06381 q -0.005,-0.15059 -0.0631,-0.27688 -0.0534,-0.13116 -0.16516,-0.20888 -0.10687,-0.0777 -0.2866,-0.0777 -0.17487,0 -0.29145,0.0826 -0.11172,0.0777 -0.17487,0.20887 -0.0632,0.1263 -0.0826,0.27203 z m 3.44401,1.58356 q -0.45175,0 -0.73835,-0.17487 -0.28659,-0.17487 -0.42746,-0.47604 -0.13601,-0.30117 -0.13601,-0.68492 0,-0.37403 0.15544,-0.6752 0.15544,-0.30603 0.44204,-0.48576 0.28659,-0.17973 0.68491,-0.17973 0.20402,0 0.37404,0.0389 0.17487,0.034 0.3206,0.0972 l -0.13602,0.51004 q -0.102,-0.0389 -0.22344,-0.068 -0.12144,-0.0291 -0.28174,-0.0291 -0.34489,0 -0.5149,0.21859 -0.17002,0.21373 -0.17002,0.57319 0,0.24288 0.068,0.42261 0.068,0.17487 0.2283,0.27203 0.1603,0.0923 0.42261,0.0923 0.14573,0 0.29145,-0.0291 0.15059,-0.0291 0.26231,-0.0777 l 0.0971,0.52462 q -0.11658,0.0534 -0.30602,0.0923 -0.18945,0.0389 -0.4129,0.0389 z m 2.22234,0 q -0.36432,0 -0.64606,-0.16515 -0.27688,-0.17002 -0.43233,-0.47119 -0.15544,-0.30117 -0.15544,-0.70434 0,-0.40318 0.1603,-0.6995 0.1603,-0.29631 0.43718,-0.46632 0.28174,-0.17002 0.63635,-0.17002 0.35946,0 0.63634,0.17002 0.28174,0.16516 0.43718,0.46632 0.15544,0.29632 0.15544,0.6995 0,0.40317 -0.15544,0.70434 -0.15059,0.30117 -0.42747,0.47119 -0.27202,0.16515 -0.64605,0.16515 z m 0,-0.54404 q 0.18458,0 0.31088,-0.0971 0.13115,-0.0972 0.19916,-0.27689 0.0729,-0.17973 0.0729,-0.4226 0,-0.24288 -0.0729,-0.41776 -0.068,-0.17487 -0.19916,-0.27202 -0.1263,-0.0971 -0.31088,-0.0971 -0.18459,0 -0.31575,0.0971 -0.13115,0.0971 -0.19916,0.27202 -0.068,0.17488 -0.068,0.41776 0,0.24287 0.068,0.4226 0.068,0.17488 0.19916,0.27689 0.13116,0.0971 0.31575,0.0971 z m 1.82158,0.4809 v -2.54537 h 0.63149 v 2.54537 z m 0.31574,-2.94855 q -0.15544,0 -0.27202,-0.10201 -0.11658,-0.10686 -0.11658,-0.28659 0,-0.17973 0.11658,-0.28174 0.11658,-0.10687 0.27202,-0.10687 0.1603,0 0.27203,0.10687 0.11658,0.10201 0.11658,0.28174 0,0.17973 -0.11658,0.28659 -0.11173,0.10201 -0.27203,0.10201 z m 1.03466,2.94855 v -2.45793 q 0.17488,-0.0486 0.45176,-0.0972 0.28174,-0.0486 0.6072,-0.0486 0.42746,0 0.66062,0.15058 0.23803,0.14573 0.33032,0.40804 0.0971,0.26231 0.0971,0.61205 v 1.43299 h -0.63148 v -1.34555 q 0,-0.25745 -0.0486,-0.41289 -0.0437,-0.1603 -0.15058,-0.22831 -0.10687,-0.0729 -0.30117,-0.0729 -0.11173,0 -0.21859,0.0146 -0.10201,0.01 -0.16516,0.0194 v 2.02561 z m 3.52174,0.0631 q -0.33517,0 -0.55376,-0.0583 -0.21374,-0.0534 -0.29632,-0.0923 l 0.11659,-0.51976 q 0.15058,0.0583 0.33517,0.10687 0.18944,0.0437 0.40318,0.0437 0.21373,0 0.31574,-0.0486 0.10687,-0.0486 0.10687,-0.18459 0,-0.0777 -0.0534,-0.13115 -0.0486,-0.0534 -0.15544,-0.10687 -0.10201,-0.0534 -0.26717,-0.11658 -0.21373,-0.0826 -0.38374,-0.17487 -0.16516,-0.0972 -0.26231,-0.24774 -0.0923,-0.15058 -0.0923,-0.38861 0,-0.23316 0.11658,-0.39832 0.12144,-0.17001 0.33518,-0.26231 0.21859,-0.0971 0.51976,-0.0971 0.23802,0 0.44204,0.0437 0.20401,0.0437 0.31574,0.0874 l -0.11658,0.50033 q -0.10687,-0.0389 -0.25745,-0.0777 -0.14573,-0.0389 -0.34489,-0.0389 -0.17973,0 -0.28174,0.0583 -0.10201,0.0534 -0.10201,0.17487 0,0.0729 0.0389,0.1263 0.0389,0.0534 0.13115,0.102 0.0923,0.0486 0.25746,0.11173 0.29631,0.10687 0.46632,0.21859 0.17002,0.11172 0.24774,0.25745 0.0777,0.14573 0.0777,0.36432 0,0.24773 -0.1263,0.41289 -0.12144,0.16516 -0.35946,0.2526 -0.23802,0.0826 -0.57319,0.0826 z m 3.86662,0 q -0.36431,0 -0.64605,-0.16515 -0.27688,-0.17002 -0.43233,-0.47119 -0.15544,-0.30117 -0.15544,-0.70434 0,-0.40318 0.1603,-0.6995 0.1603,-0.29631 0.43718,-0.46632 0.28174,-0.17002 0.63634,-0.17002 0.35946,0 0.63635,0.17002 0.28173,0.16516 0.43718,0.46632 0.15544,0.29632 0.15544,0.6995 0,0.40317 -0.15544,0.70434 -0.15059,0.30117 -0.42747,0.47119 -0.27202,0.16515 -0.64606,0.16515 z m 0,-0.54404 q 0.18459,0 0.31089,-0.0971 0.13115,-0.0972 0.19916,-0.27689 0.0729,-0.17973 0.0729,-0.4226 0,-0.24288 -0.0729,-0.41776 -0.068,-0.17487 -0.19916,-0.27202 -0.1263,-0.0971 -0.31089,-0.0971 -0.18458,0 -0.31574,0.0971 -0.13115,0.0971 -0.19916,0.27202 -0.068,0.17488 -0.068,0.41776 0,0.24287 0.068,0.4226 0.068,0.17488 0.19916,0.27689 0.13116,0.0971 0.31574,0.0971 z m 1.82159,0.4809 v -2.41422 q 0.17487,-0.0631 0.42747,-0.12144 0.25745,-0.0631 0.57805,-0.0631 0.0826,0 0.1943,0.0146 0.11172,0.01 0.21373,0.0291 0.10687,0.0194 0.17488,0.0486 l -0.10687,0.52462 q -0.0874,-0.0243 -0.21859,-0.0486 -0.1263,-0.0243 -0.2866,-0.0243 -0.0971,0 -0.19916,0.0146 -0.0971,0.0146 -0.14573,0.034 v 2.00618 z m 4.16293,0.0631 q -0.18459,0 -0.37403,-0.0243 -0.18945,-0.0194 -0.35461,-0.0486 -0.16515,-0.034 -0.28659,-0.0729 v -3.58489 l 0.63148,-0.10201 v 1.30183 q 0.11173,-0.0534 0.2526,-0.0923 0.14572,-0.0389 0.31574,-0.0389 0.36432,0 0.61205,0.16515 0.2526,0.16516 0.37889,0.46633 0.13116,0.29631 0.13116,0.69463 0,0.40804 -0.15545,0.70921 -0.15544,0.29631 -0.45175,0.46147 -0.29145,0.16515 -0.69949,0.16515 z m -0.005,-0.54404 q 0.21374,0 0.35946,-0.0971 0.15059,-0.10201 0.22831,-0.28174 0.0777,-0.17973 0.0777,-0.42747 0,-0.18459 -0.034,-0.32546 -0.034,-0.14572 -0.10687,-0.24288 -0.0729,-0.102 -0.18459,-0.15058 -0.10686,-0.0534 -0.26231,-0.0534 -0.13601,0 -0.26231,0.0389 -0.12143,0.0389 -0.1943,0.0923 v 1.41355 q 0.0583,0.01 0.15544,0.0243 0.0972,0.01 0.22345,0.01 z m 3.00199,0.54404 q -0.36432,0 -0.64606,-0.16515 -0.27688,-0.17002 -0.43232,-0.47119 -0.15545,-0.30117 -0.15545,-0.70434 0,-0.40318 0.1603,-0.6995 0.1603,-0.29631 0.43719,-0.46632 0.28173,-0.17002 0.63634,-0.17002 0.35946,0 0.63634,0.17002 0.28174,0.16516 0.43718,0.46632 0.15544,0.29632 0.15544,0.6995 0,0.40317 -0.15544,0.70434 -0.15058,0.30117 -0.42747,0.47119 -0.27202,0.16515 -0.64605,0.16515 z m 0,-0.54404 q 0.18459,0 0.31088,-0.0971 0.13116,-0.0972 0.19916,-0.27689 0.0729,-0.17973 0.0729,-0.4226 0,-0.24288 -0.0729,-0.41776 -0.068,-0.17487 -0.19916,-0.27202 -0.12629,-0.0971 -0.31088,-0.0971 -0.18459,0 -0.31574,0.0971 -0.13116,0.0971 -0.19917,0.27202 -0.068,0.17488 -0.068,0.41776 0,0.24287 0.068,0.4226 0.068,0.17488 0.19917,0.27689 0.13115,0.0971 0.31574,0.0971 z m 2.76395,0.53919 q -0.37403,0 -0.58776,-0.13116 -0.20888,-0.13601 -0.29631,-0.37403 -0.0826,-0.24288 -0.0826,-0.57319 v -2.18591 l 0.63148,-0.10201 v 0.76264 h 0.89865 v 0.52947 h -0.89865 v 0.99581 q 0,0.17973 0.0389,0.30117 0.0437,0.11658 0.13601,0.17487 0.0971,0.0583 0.25745,0.0583 0.13116,0 0.2526,-0.0243 0.12629,-0.0291 0.22345,-0.068 l 0.0923,0.50032 q -0.11658,0.0486 -0.27688,0.0923 -0.1603,0.0437 -0.38861,0.0437 z m 1.15125,-0.0583 v -3.66747 l 0.63148,-0.10201 v 1.2484 q 0.0923,-0.034 0.21373,-0.0583 0.1263,-0.0243 0.24288,-0.0243 0.4129,0 0.6412,0.15058 0.23317,0.14573 0.32546,0.40804 0.0923,0.26231 0.0923,0.61205 v 1.43299 h -0.63148 v -1.34555 q 0,-0.25745 -0.0486,-0.41289 -0.0437,-0.1603 -0.15058,-0.22831 -0.10201,-0.0729 -0.29631,-0.0729 -0.068,0 -0.14573,0.0146 -0.0729,0.01 -0.13601,0.0243 -0.0632,0.0146 -0.10687,0.0291 v 1.99161 z m 3.07969,0.0631 q -0.16515,0 -0.28659,-0.10686 -0.12144,-0.11173 -0.12144,-0.30117 0,-0.18945 0.12144,-0.29631 0.12144,-0.11173 0.28659,-0.11173 0.16516,0 0.2866,0.11173 0.1263,0.10686 0.1263,0.29631 0,0.18944 -0.1263,0.30117 -0.12144,0.10686 -0.2866,0.10686 z"
         id="text29"
         transform="translate(2.9050577e-6)"
         aria-label="Recurrent payments in BCH, stablecoins or both.&#10;" />
    </g>
  </g>
</svg>
